<svg version="1" xmlns="http://www.w3.org/2000/svg" width="889.333" height="889.333" viewBox="0 0 667.000000 667.000000"><path d="M469.4 89.8c3.7 3.8 8.8 10.1 11.3 13.8 6.5 9.7 15.5 20.6 24.3 29.3 7 6.9 18.6 17.1 19.5 17.1.3 0 0-1-.5-2.3-.6-1.2-1.6-4.7-2.4-7.7-6.2-23.6-18.3-39.4-37-48.5-5.1-2.5-9.8-4.5-10.3-4.5-.6 0-2.3-.6-3.9-1.4-7.6-3.7-7.8-2.9-1 4.2zM192.8 88c-2.1 1-3.8 1.7-3.8 1.5 0-.7-12.2 5.5-17.5 8.8-12.7 7.9-22.2 20.7-26.2 35.2-.8 2.7-2 7.2-2.8 10-.7 2.7-1.7 5.8-2 6.7-1 2.4-.1 2.3 2.7-.5 1.3-1.2 5-4.4 8.3-7.2 9.1-7.6 16.5-15.6 22-23.7 8.1-12 14.9-21 19.8-26.3 6.4-6.9 6.3-8-.5-4.5z"/><path d="M515.9 111.1c6.2 6.3 9.3 13.7 15 36.1 2.7 10.8 5.7 21.3 6.5 23.3 1.8 4.3 1.9 4.5.8 4.5-.4 0-1.4-1.5-2.1-3.3-1.8-3.9-16.5-18.8-20.9-21.1-1.8-.9-3.2-2.1-3.2-2.6 0-.6-.6-1-1.2-1-2.7-.1-18.4-14.3-20.7-18.8-.7-1.3-1.5-2.2-1.7-1.9-1 1 1.9 10.7 5.6 18.2 5.1 10.6 12.6 18.3 34.4 35.5 4.7 3.6 13.5 13.2 16.2 17.4 1.6 2.5 3.3 4.6 3.8 4.6s.4-.6-.2-1.3c-.7-.8-.9-7.9-.6-20.2.3-10.5.5-19.5.5-20 .2-23.5-15.1-47.3-34.1-53-2.1-.6-1.9-.1 1.9 3.6zm25.1 68.4c0 .5-.5.3-1-.5s-1-2-1-2.5c0-.6.5-.3 1 .5s1 1.9 1 2.5z"/><path d="M306.5 110.6c-4.4.7-10 1.5-12.5 1.9-2.5.3-6.1 1-8 1.5-1.9.5-4.6 1.1-6 1.4-1.4.3-4.1 1-6 1.6-1.9.6-4.5 1.3-5.8 1.6-1.3.3-7 2.2-12.7 4.3-52.8 19.9-95.7 58.4-120.9 108.6-3.5 7.1-8.7 18.6-8.7 19.5-.1.3-1.8 4-3.9 8.2-2.1 4.3-3.6 7.8-3.3 7.8.3 0 .1.6-.5 1.2-2.7 3.4-5.3 17.2-5.3 27.7 0 4-.2 7.1-.5 6.8-.3-.3-1.4-4.5-2.4-9.4-1-4.8-2-9.7-2.3-10.8-.8-3.2-7.2-19.3-10.5-26.5-3.4-7.5-7.8-20.7-8.8-26.5-.3-2.2-.6-6.6-.6-9.8 0-7.4-1.1-6.3-3.2 3.3-4 18.8-3.8 30.5.6 48.9 1.1 4.6 2.1 8.9 2.3 9.5.7 3.4 7.8 17.9 9.9 20.3.6.7 1.6 1.8 2.1 2.5.6.7 3.4 4.2 6.3 7.8l5.2 6.5v15l-4.8-5c-11.3-12.1-20.3-24.8-21.7-30.8-.2-1.2-.9-3.8-1.4-5.7l-.9-3.5-.2 3.5c-.3 4.2 0 14.4.4 16.8.2.9.7 3.7 1.1 6.2 1 6.3 8 23.5 10.5 26 .3.3 1.7 2.3 3.3 4.6 1.5 2.2 5.9 7.3 9.7 11.2 5.1 5.2 7 7.9 7.1 9.9 0 1.6.2 3.5.4 4.3.2.8.7 3.1 1.1 5l.7 3.5-4.8-4.5c-2.6-2.5-6.5-7.2-8.6-10.5-4.1-6.4-4.9-5.9-2.3 1.5 4 11.4 8.8 19.9 17 29.6 3.6 4.3 6.2 8.6 6.8 11.4.4 1.4 4.2 10.8 5.3 13 .7 1.4 1.3 2.8 1.3 3.1 0 .3 1.8 3.8 3.9 7.8 2.2 3.9 3.7 7.1 3.4 7.1-.3 0 .1.7.8 1.6 1.2 1.5 1 1.6-1.6 1-4.6-.9-8.7-1.4-23.5-3.1-11.3-1.3-24.1-1.8-44.7-1.9-22.5-.1-23.2 0-26.2 2.2-1.7 1.2-3.2 2.2-3.5 2.2-.4 0-22 12.5-32.9 19.1C4 460.7 1.4 462 .9 462c-1.2 0-.8 1.3 5.2 20.8 2.7 8.6 5.2 16.8 5.5 18.1.3 1.4.7 2.8 1 3.3 1.5 2.4 1 6.1-2.1 15.1s-3.4 10.4-2.4 14.1c1.4 4.9 1.7 6.6 1.8 8.6.3 3.8 1.4 3.9 11 1.4 5.2-1.3 10.8-2.7 12.5-3 1.7-.3 5.1-1 7.6-1.5 6.2-1.5 7.9-1.8 12-2.4 2-.3 4.7-.8 6-1 6.1-1.2 12.1-2.2 18.5-3 2.8-.4 6.1-.8 7.5-1 1.4-.2 5.7-.6 9.5-1 3.9-.3 8.3-.8 9.8-1.1 13.9-2.3 71.8-2.2 89.7.1 9.2 1.2 13.7 1.8 16.5 2.1 1.7.1 3 .3 3 .4 0 .2 2.5.6 8 1.5 16.8 2.5 54.8 14.4 64.8 20.3 2.3 1.4 4.3 5.3 5.1 10.2.1.3 1.2 2.6 2.4 5.2 6.4 12.9 22 20.3 42.1 19.7 8.7-.2 17.3-2 22.2-4.6 8.2-4.3 17.9-17.8 18.1-25.2.1-1.7.6-3.5 1.2-4 2.3-1.9 34.8-12.9 40.1-13.5 1.1-.2 2.7-.6 3.5-.9 1.3-.5 5.2-1.5 8.5-2.2 1.4-.4 21.5-4.4 24.4-5 1.4-.2 6.1-1 10.5-1.6 8.1-1.1 10-1.3 18.6-2.3 19.3-2.3 64.7-2.4 83.1-.1 1.9.2 6.2.6 9.6 1 3.4.3 7.2.8 8.4 1 1.3.3 4.1.7 6.4 1 5.7.8 20.2 3.4 25.5 4.5 2.5.6 5.6 1.3 7 1.6 1.4.2 3.3.7 4.2 1 .9.3 2.5.6 3.5.8 2.3.5 18.3 5.2 20.4 6.1 1.2.4 1.9-.2 2.7-2.2 1.2-3.4 2.3-6.7 2.3-7 0-.2.6-2.1 1.4-4.4 1.5-4 1.4-4.6-1.4-12.3-4.2-11.6-4.3-12-3-15.2.6-1.6 1.2-3.6 1.4-4.5.4-1.9 5.7-19.2 9.1-29.9 2.9-8.9 2.9-9.6.7-10.3-1.9-.6-7.5-3.8-8.3-4.8-.3-.3-1.2-.8-2-1.1-.8-.3-8.5-4.8-17-9.9l-15.5-9.4-22 .1c-20.4.1-36.9.8-44.7 1.9-1.8.2-5.5.7-8.3 1-2.7.3-6.8.8-9 1.1-10.4 1.3-10.4 1.3-9.8-.4.3-.9 1.1-2.4 1.7-3.2 1-1.3 6.4-12.6 10.2-21.5 1.7-3.9 4.6-12.2 4.7-13.2 0-1.3 2.9-5.7 7.8-11.9 6.9-8.8 14.2-23.4 15.3-30.7.1-.7.5-1.8.9-2.5.5-.7.3-1.2-.3-1.2s-1.3.8-1.7 1.7c-1.1 3.1-5.9 9.6-10.6 14.5-4 4.2-6.7 6.2-5.3 4 .2-.4.7-2.5 1.1-4.7 1.3-8.7 2.2-10.5 7.1-15.7 10.5-11 17.8-22.6 22.4-35.6 2.9-8.3 3.1-9.6 3.6-23.2.4-11.6 0-12.1-2.7-3-1.9 6.7-10.1 21-12 21-.5 0-.9.6-.9 1.2-.1.7-3.2 4.4-7 8.3l-6.9 6.9.2-7.4.3-7.5 8.1-10.7c9-11.8 10.1-13.6 13.6-22.9 4.4-11.7 7-26 7-38.9.1-7.1-1-18.7-1.8-20-.2-.4-.7-2-1-3.6-.3-1.6-.7-3.4-.9-4.1-.1-.7-.5-1.6-.9-1.9-.4-.4-.7-1.6-.7-2.6s-.3-1.8-.7-1.8c-.5 0-.7 3.6-.6 8 .1 4.4-.5 10.8-1.3 14.2-1.7 7.7-6.5 21.2-7.6 21.6-.4.2-.8 1.2-.8 2.1 0 1-.3 2.1-.7 2.5-.4.3-.8 1.2-.9 1.9-.1.7-1.4 3.8-2.8 7-2.6 5.5-8.4 26.5-8.8 31.9-.1 1.5-.5 2.5-.8 2.3-.3-.2-.5-4.7-.4-10.2.1-13.2-2.8-23.5-10-35.3-1.2-1.9-4.2-8-6.6-13.5-4.9-10.9-12.9-25.8-14.2-26.3-.4-.2-.8-.8-.8-1.4 0-.6-1.1-2.6-2.5-4.4-1.4-1.8-2.5-3.7-2.5-4.3 0-.6-.4-1.1-.8-1.1s-1.5-1.3-2.5-2.9c-2.1-3.6-18.2-21.6-26.2-29.4-21.1-20.6-46.1-36.6-73.5-47.2-5.2-2-11.7-4.5-14.4-5.6-2.7-1-5.7-1.9-6.8-1.9-1.1 0-2.8-.4-3.8-1-1-.5-3.2-1.1-4.9-1.2-1.7-.1-3.1-.5-3.1-.8 0-.4-1-.6-2.2-.5-1.2.1-4.7-.4-7.7-1.1-9.7-2.1-16.1-2.6-36.6-2.8-11.7-.1-23.3.3-28 1z"/><path d="M145 112.7c-10.1 4.9-23.8 21.2-25.5 30.5-.2 1.1-.6 2.7-.9 3.6-1.3 4.3-1.8 11.6-1.6 21.7.1 6 .3 16.7.4 23.8 0 7 .3 12.7.6 12.7s1.3-1.5 2.3-3.3c3.6-6.7 12.4-15.8 24.5-25.3 4.8-3.8 11-9.5 13.7-12.7 2.8-3.3 5.5-6.5 6.2-7.2 4.4-4.6 11.3-21.6 11.3-27.4v-2.6l-1.5 2.5c-.8 1.4-1.7 3.2-2.1 4-1.1 2.3-11.4 12.2-15.6 15-2.1 1.4-3.8 2.8-3.8 3.2 0 .5-.7.8-1.5.8s-1.5.4-1.5.8-1.2 1.5-2.7 2.4c-6.4 3.7-15.9 14.5-19.6 22.1-1.5 3.1-3 5.7-3.3 5.7-.3 0-.3-.4 0-.8.3-.5.7-1.9 1-3.3.3-1.3 1.6-5.4 3-9.1 1.3-3.7 2.7-8 3-9.5.3-1.5 1-4.6 1.5-6.8s1.2-5.4 1.4-7c2.1-12.6 7.4-26.5 11.7-30.5 1.5-1.5 5.3-6 4.9-6-.2 0-2.9 1.2-5.9 2.7zM550.8 142.5c.2 1.4.8 2.5 1.2 2.5.4 0 1.1 1.5 1.5 3.2.4 1.8.9 4 1.1 4.8 1.9 7.5 2.2 16.6.8 29-1 9.1-1.1 42.4-.2 50 1 8-1.4 1.7-2.6-7-.3-2-1.3-4.6-4.3-10.7-3.5-7.2-6.9-11.1-22.1-25.1-5.5-5.1-11.4-11.3-13.1-13.9-3.4-5-3.6-4.9-2 1.2.5 2.2 1.2 5.1 1.5 6.5 1.1 5.2 6.9 17.8 11.3 24.5 2.5 3.8 4.8 7.4 5 8 .2.5.7 1.2 1.1 1.5.3.3 3.9 5 7.8 10.5 8.2 11.4 14.5 23.3 16.9 32l1.6 6 1.4-6.5c.7-3.6 1.5-7.4 1.8-8.5.7-3.3 3.1-10.5 6.3-19 4.1-10.8 4.8-13.7 5.8-23 1.7-16.7-1.4-35.3-8.3-48.8-2.5-5-12-19.7-12.7-19.7-.2 0-.1 1.1.2 2.5z"/><path d="M108.3 151.8c-7.5 11.1-12.2 22.6-14 33.7-.9 5.3-.9 22.9-.1 28 .7 4.3 1.6 8 1.8 8 .1 0 .3 1 .6 2.2.2 1.2 2.6 8.2 5.4 15.6 2.7 7.3 5 14.3 5 15.5 0 1.1.5 2.4 1 2.7.6.3 1 2.1 1.1 3.8 0 1.8.4 4.1.9 5.2.8 1.9.9 1.9 1.1-.3.6-7.8 7.6-21.8 18.9-38.2 9.4-13.5 18-28 18-30.2 0-.9.4-1.9.9-2.2.5-.3 1.1-1.6 1.4-2.8 4.6-18.6 4.6-18.4 2.9-15.9-1 1.3-7.9 8.5-15.4 16.2-7.6 7.6-13.8 14.3-13.8 14.9 0 .5-.4 1-.8 1-1 0-8.8 14.6-9.6 18.1-.3 1.4-.8 4.4-1.2 6.5-1 6.4-2.3 7.5-1.8 1.4.6-8.1 1.5-19.4 1.5-20.5 0-3.1-1-17.5-1.5-20.1-1.4-7.6-1.8-11.6-2-21.2-.3-11.8.7-18.9 3.6-24.5 3.2-6.5 1.5-5.1-3.9 3.1z"/></svg>